<svg width="24" height="20" viewBox="0 0 24 20" fill="none" xmlns="http://www.w3.org/2000/svg">
<path fill-rule="evenodd" clip-rule="evenodd" d="M0.799988 2.00002C0.799988 1.11637 1.51633 0.400024 2.39999 0.400024H21.6C22.4836 0.400024 23.2 1.11637 23.2 2.00002C23.2 2.88368 22.4836 3.60002 21.6 3.60002H2.39999C1.51633 3.60002 0.799988 2.88368 0.799988 2.00002Z" fill="#8D98AF"/>
<path fill-rule="evenodd" clip-rule="evenodd" d="M0.799988 10C0.799988 9.11637 1.51633 8.40002 2.39999 8.40002H12C12.8836 8.40002 13.6 9.11637 13.6 10C13.6 10.8837 12.8836 11.6 12 11.6H2.39999C1.51633 11.6 0.799988 10.8837 0.799988 10Z" fill="#8D98AF"/>
<path fill-rule="evenodd" clip-rule="evenodd" d="M0.799988 18C0.799988 17.1164 1.51633 16.4 2.39999 16.4H21.6C22.4836 16.4 23.2 17.1164 23.2 18C23.2 18.8837 22.4836 19.6 21.6 19.6H2.39999C1.51633 19.6 0.799988 18.8837 0.799988 18Z" fill="#8D98AF"/>
</svg>
